HIERARCHY
ROOT Hips
{
 OFFSET 0.000000 0.000000 0.000000
 CHANNELS 6 Xposition Yposition Zposition Yrotation Xrotation Zrotation
 JOINT Chest
 {
  OFFSET 0.000000 9.585900 0.002600
  CHANNELS 3 Yrotation Xrotation Zrotation
  JOINT Chest2
  {
   OFFSET 0.000000 9.601200 -0.005300
   CHANNELS 3 Yrotation Xrotation Zrotation
   JOINT Chest3
   {
    OFFSET 0.000000 9.561800 0.000000
    CHANNELS 3 Yrotation Xrotation Zrotation
    JOINT Chest4
    {
     OFFSET 0.000000 9.552100 0.000000
     CHANNELS 3 Yrotation Xrotation Zrotation
     JOINT Neck
     {
      OFFSET 0.000000 14.453000 0.000000
      CHANNELS 3 Yrotation Xrotation Zrotation
      JOINT Head
      {
       OFFSET 0.000000 8.936500 -0.011300
       CHANNELS 3 Yrotation Xrotation Zrotation
       End Site
       {
        OFFSET 0.000000 17.073600 -0.006000
       }
      }
     }
     JOINT RightCollar
     {
      OFFSET -2.921100 9.558500 0.000000
      CHANNELS 3 Yrotation Xrotation Zrotation
      JOINT RightShoulder
      {
       OFFSET -13.519700 0.000000 0.000000
       CHANNELS 3 Yrotation Xrotation Zrotation
       JOINT RightElbow
       {
        OFFSET 0.000000 -29.696600 0.000000
        CHANNELS 3 Yrotation Xrotation Zrotation
        JOINT RightWrist
        {
         OFFSET 0.000000 -24.004700 0.000000
         CHANNELS 3 Yrotation Xrotation Zrotation
         End Site
         {
          OFFSET 0.000000 -17.728500 0.000000
         }
        }
       }
      }
     }
     JOINT LeftCollar
     {
      OFFSET 2.921100 9.558500 0.000000
      CHANNELS 3 Yrotation Xrotation Zrotation
      JOINT LeftShoulder
      {
       OFFSET 13.519700 0.000000 0.000000
       CHANNELS 3 Yrotation Xrotation Zrotation
       JOINT LeftElbow
       {
        OFFSET 0.000000 -29.696600 0.000000
        CHANNELS 3 Yrotation Xrotation Zrotation
        JOINT LeftWrist
        {
         OFFSET 0.000000 -24.004700 0.000000
         CHANNELS 3 Yrotation Xrotation Zrotation
         End Site
         {
          OFFSET 0.000000 -17.728500 0.000000
         }
        }
       }
      }
     }
    }
   }
  }
 }
 JOINT RightHip
 {
  OFFSET -7.771700 -0.012900 -0.001300
  CHANNELS 3 Yrotation Xrotation Zrotation
  JOINT RightKnee
  {
   OFFSET 0.000000 -40.869800 0.001200
   CHANNELS 3 Yrotation Xrotation Zrotation
   JOINT RightAnkle
   {
    OFFSET 0.000000 -39.717900 0.002100
    CHANNELS 3 Yrotation Xrotation Zrotation
    JOINT RightToe
    {
     OFFSET 0.000000 -4.965400 11.033500
     CHANNELS 3 Yrotation Xrotation Zrotation
     End Site
     {
      OFFSET 0.000000 -1.423100 5.872300
     }
    }
   }
  }
 }
 JOINT LeftHip
 {
  OFFSET 7.771700 -0.012900 -0.001300
  CHANNELS 3 Yrotation Xrotation Zrotation
  JOINT LeftKnee
  {
   OFFSET 0.000000 -40.869800 0.001200
   CHANNELS 3 Yrotation Xrotation Zrotation
   JOINT LeftAnkle
   {
    OFFSET 0.000000 -39.717900 0.002100
    CHANNELS 3 Yrotation Xrotation Zrotation
    JOINT LeftToe
    {
     OFFSET 0.000000 -4.965400 11.033500
     CHANNELS 3 Yrotation Xrotation Zrotation
     End Site
     {
      OFFSET 0.000000 -1.423100 5.872300
     }
    }
   }
  }
 }
}
MOTION
Frames: 5
Frame Time: 0.008333
0.000000 85.388000 0.000000 0.000000 -5.767877 0.000000 0.000000 11.653817 0.000000 0.000000 -5.885947 0.000000 0.000000 -0.000000 0.000000 0.000000 -0.000000 0.000000 0.000000 12.528835 0.000000 0.000000 0.711642 0.000000 0.000000 -0.000000 0.000000 0.000000 0.000000 -90.000000 0.000000 -2.309062 0.000000 0.000000 2.309062 0.000000 0.000000 -0.000000 0.000000 0.000000 -0.000000 90.000000 0.000000 -2.309062 0.000000 0.000000 2.309062 0.000000 0.000000 8.520406 0.000000 0.000000 1.905762 0.000000 -0.000000 -4.658285 0.000000 0.000000 -0.000000 0.000000 0.000000 8.520406 0.000000 0.000000 1.905762 0.000000 -0.000000 -4.658285 0.000000 0.000000 -0.000000 0.000000
19.455576 49.953469 56.385323 172.543375 -28.457157 -6.530255 10.452974 21.529423 8.533596 1.373706 3.514061 0.905829 2.228124 5.486577 1.481861 8.244945 18.301949 5.980227 -3.471877 18.327276 1.457447 -6.839038 -1.475483 3.776482 -1.689022 -4.857625 -12.655594 18.457881 -14.031293 -5.479370 137.950396 -45.378644 -149.745352 1.343495 -0.474756 -10.026226 -20.025305 -6.365238 7.624846 -9.537956 -16.686387 2.526746 -153.489252 -53.889641 152.521031 16.912756 -12.855302 12.120755 -2.883580 -51.475258 11.191643 -130.331028 84.550005 -118.486662 -0.737270 -14.513546 -4.555481 -0.163980 0.799174 -0.061648 -10.069244 -55.725139 17.361332 -158.037992 80.140393 -165.343497 0.665131 -17.948250 7.593180 -0.261995 -0.542530 -0.086579
19.455261 49.950617 56.378285 172.584803 -28.415434 -6.577739 10.440741 21.460362 8.561183 1.342910 3.482277 0.903554 2.232716 5.500811 1.486104 8.246347 18.178723 5.993903 -3.508512 18.294148 1.439208 -6.915482 -1.599307 3.769746 -1.710699 -4.819049 -12.656893 18.381048 -13.801058 -5.514439 138.196326 -45.342331 -149.960793 1.305233 -0.538093 -10.203875 -19.924224 -6.382697 7.595428 -9.646675 -16.551726 2.546392 -153.443132 -53.920556 152.467762 16.908853 -12.882564 12.054243 -2.947332 -51.499987 11.230986 -130.266191 84.538657 -118.420025 -0.716832 -14.539901 -4.550142 -0.173690 0.815832 -0.066550 -10.159686 -55.767134 17.426938 -157.977194 80.117816 -165.291410 0.679357 -17.955543 7.603015 -0.267935 -0.540848 -0.093276
19.454728 49.948892 56.367315 172.619903 -28.385085 -6.622650 10.464023 21.407960 8.604962 1.311253 3.450992 0.899766 2.220760 5.506734 1.489794 8.308834 18.061088 6.019926 -3.572006 18.258884 1.431730 -7.024604 -1.721882 3.784037 -1.780459 -4.815725 -12.642096 18.344271 -13.580303 -5.524963 138.343618 -45.312761 -150.101661 1.268972 -0.577148 -10.374664 -19.884940 -6.431807 7.580445 -9.775028 -16.415490 2.568082 -153.441248 -53.993854 152.418960 16.887407 -12.897912 12.019103 -2.983740 -51.508852 11.249825 -130.231103 84.534275 -118.369304 -0.688666 -14.585681 -4.544825 -0.191575 0.846951 -0.075160 -10.244010 -55.795160 17.489989 -157.954286 80.091647 -165.278248 0.691061 -17.968596 7.612168 -0.274207 -0.541069 -0.099731
19.451545 49.945543 56.357829 172.649150 -28.329509 -6.653160 10.485348 21.340919 8.633217 1.367730 3.403494 0.907729 2.223204 5.456014 1.500727 8.305102 18.046256 6.058045 -3.640787 18.191934 1.435140 -7.155515 -1.841502 3.816723 -1.865888 -4.884407 -12.616048 18.331131 -13.376707 -5.506559 138.402309 -45.331142 -150.136621 1.251371 -0.632076 -10.556482 -19.873229 -6.543599 7.582372 -9.910566 -16.284357 2.590179 -153.475968 -54.107411 152.348930 16.843969 -12.905725 12.026310 -3.025863 -51.552687 11.271018 -130.271815 84.527757 -118.410322 -0.675488 -14.612168 -4.535026 -0.206492 0.860110 -0.081827 -10.314550 -55.849212 17.536095 -158.006031 80.074782 -165.335606 0.682750 -17.984743 7.618953 -0.271842 -0.533565 -0.103155
